PathFileType	4	(X/Y/Z)	OpenSim_Sub06_EMGBaseline_Accel.trc
DataRate	CameraRate	NumFrames	NumMarkers	Units	OrigDataRate	OrigDataStartFrame	OrigNumFrames
100	100	23	8	m	100	4136	8270
Frame#	Time	torso_imu_offset_imu	pelvis_imu_offset_imu	tibia_r_imu_offset_imu	femur_r_imu_offset_imu	tibia_l_imu_offset_imu	femur_l_imu_offset_imu	toes_r_imu_offset_imu	toes_l_imu_offset_imu
				X1	Y1	Z1	X2	Y2	Z2	X3	Y3	Z3	X4	Y4	Z4	X5	Y5	Z5	X6	Y6	Z6	X7	Y7	Z7	X8		Y8	Z8	

4136	41.35000000	9.42395007	-1.41986821	6.61176130	8.92171905	1.83281340	3.44019780	9.92173672	0.74177907	2.46238679	9.04137924	-3.21042078	-0.99059786	8.68695299	-0.05341523	2.75103873	8.31719385	1.97734985	-0.44771508	5.73090762	-2.04035403	8.79019222	0.84996447	-2.28609839	19.56697733
4137	41.36000000	10.03796044	-1.28710529	6.58961975	9.07765334	1.51812231	4.02459696	10.38694874	0.98462492	2.62794359	9.46932530	-3.34863500	-0.81184285	9.21370561	1.08381381	2.91367086	9.96638788	0.96900680	-0.12410618	5.71568062	-2.39102872	8.99438840	1.57024399	-10.88384086	10.56463343
4138	41.37000000	10.45016911	-1.13313173	6.60632365	9.38796844	0.98546479	5.05801299	10.96755900	1.33849380	2.99724082	9.65357405	-3.43788840	-0.78920439	12.10018269	4.65815816	5.29958762	13.19913038	0.21892738	-0.30605277	5.48079533	-2.76597763	9.37747457	40.89978697	-16.21738828	38.98190617
4139	41.38000000	11.64320790	-0.90878755	6.75400812	9.81764289	-0.04164688	6.20192164	11.78694247	1.68526629	3.10714195	10.22277425	-3.75550919	-0.54284846	19.01446828	10.52301363	10.85750115	18.07973218	1.47975338	-0.96633644	5.86092382	-2.73792542	9.57266606	1.79453280	-19.89913579	-24.52902724
4140	41.39000000	12.79152001	-0.58436149	7.16391544	10.83219291	-0.99941729	6.51951132	12.63567518	1.67259181	3.90376510	10.98303892	-4.04408953	-0.53213727	22.07541198	11.95462477	13.71628277	20.47963366	3.88339726	-1.90119873	5.91360651	-3.23114161	9.61361170	-4.48056364	12.96698038	37.75252967
4141	41.40000000	12.15560719	-0.34947867	7.81228458	12.24786612	-1.95569143	6.79135589	13.26341002	0.93096174	4.87692965	11.09045842	-4.07786614	-0.75630883	18.87926546	6.57951797	12.24556544	17.29570811	4.90755704	-2.33485844	5.65028499	-3.42054577	10.26297070	12.41476465	11.79351446	9.39540829
4142	41.41000000	11.11113761	-0.11278882	7.86856677	13.41188631	-2.85644718	6.93906532	13.92028437	-0.30577602	4.88723891	11.08979575	-4.03530750	-0.59549166	13.74717607	-0.29531128	8.38823033	10.66118130	4.77587356	-1.75359427	5.23816263	-4.21738219	10.42068221	3.76622403	-9.44949034	9.97919103
4143	41.42000000	10.72738587	0.03018609	7.33314512	12.91551952	-2.72299812	6.58331254	14.54762711	-1.28979475	4.94088633	10.90985301	-3.49955600	-0.21932715	7.13684512	-4.04286413	3.72949082	7.88946839	5.23225652	-0.28248942	5.74182494	-4.09544792	10.29459763	5.37005969	-4.27981512	9.52156908
4144	41.43000000	10.28784695	0.13387412	6.84373710	11.24760726	-0.80261947	6.01344526	14.48462356	-1.87822326	4.66764648	10.75819645	-3.05369360	0.61406497	1.41611969	-6.52434214	-2.53907190	7.09518788	4.41622403	0.66693676	5.86630941	-4.37247241	10.07567897	4.71917327	4.00539144	13.77017318
4145	41.44000000	9.70026969	0.28228758	6.36237110	9.72295484	0.66544257	5.85873772	13.99342486	-2.14515214	3.12119497	10.63589375	-2.20349279	1.25311109	0.12899174	-8.17365011	-5.91116512	6.18596242	2.30638535	0.02155763	5.44832844	-3.12157506	10.76135172	4.89894723	-0.39902056	9.95428802
4146	41.45000000	9.14258290	0.64138978	6.03196101	8.19498374	1.46488438	5.85500705	13.33437667	-1.09599907	2.64253994	10.54298077	-1.24753620	1.07581937	3.20156675	-10.38288633	-5.92860393	6.80178043	1.08720179	-1.26305102	7.42636886	-4.19546247	10.39943005	5.86767338	3.31179064	11.48976418
4147	41.46000000	8.58664980	0.94535916	5.75786935	7.04035404	1.82229332	5.60525920	12.86656644	0.76411286	2.31777817	10.48988927	-0.48094942	1.30683324	6.22013898	-10.20277457	-4.03381279	8.54770493	0.16361334	-2.77433662	8.79704086	-4.73190663	9.70663449	5.45905157	2.34728894	10.34188580
4148	41.47000000	8.04507223	1.15116836	5.60438731	6.53577070	2.00982346	5.42921183	12.38600456	2.86869433	1.81500303	10.49459469	0.05088796	1.71062995	9.77365381	-8.49178536	-1.95781151	9.99376125	-0.30550958	-4.34985058	10.48525710	-4.79238758	8.75917181	5.50971071	2.18778578	11.05308789
4149	41.48000000	7.79486914	1.10891483	5.32649485	6.58359793	2.00709245	5.54225328	11.44866562	5.14839024	1.95335771	10.71800741	0.46767914	1.87729916	13.26257474	-7.11514804	-1.26943501	9.22581924	-0.78813559	-5.60631525	13.21805892	-5.11325481	8.76681841	4.20774210	1.58004534	11.19210718
4150	41.49000000	7.82494176	1.08618799	5.06944577	7.05326562	1.88291555	5.66166292	9.89738465	7.51915307	2.10919707	11.46832643	0.77555844	1.82373812	14.02741267	-5.02107045	-1.17478420	7.05958815	-1.32195914	-5.81096781	12.63042601	-7.19772054	7.24213330	4.21062044	1.11866403	11.44827117
4151	41.50000000	8.00242421	1.13082258	4.93891912	7.65468328	1.37209900	5.75559530	8.45437380	9.67577416	1.77430289	12.32602071	1.18190638	1.65717868	13.11413041	-2.98695860	-0.15415570	6.89370781	-1.86749548	-5.64507928	8.67191115	-7.20832408	6.01159147	4.37102653	0.38394015	11.72031026
4152	41.51000000	8.30286129	1.19782571	4.98630728	8.05310320	0.92935233	5.78281636	7.19047228	10.21052253	0.84372363	12.70055106	1.50579839	1.35385044	11.82875405	-1.75731829	1.29630645	8.58288158	-1.48882862	-5.52460409	4.87753807	-7.36068427	4.86755419	4.42747110	0.55777733	11.43645440
4153	41.52000000	8.31529093	1.17541560	5.14340680	8.25062981	0.32188534	5.81399020	6.18573320	9.32451271	0.33313600	12.23292533	1.65611910	0.93258205	10.34055381	-0.62421019	2.27057571	10.09548633	0.12651923	-4.65739875	4.37665225	-3.15895157	2.59958451	4.54168204	0.79501899	11.66609846
4154	41.53000000	8.35460927	0.99915541	5.25747442	8.56461281	-0.37605236	5.80314716	5.81238164	8.53747204	-0.16745967	11.31851595	1.67884090	0.87873287	9.08710196	1.39467278	2.35836306	10.11891817	1.90524006	-3.21158154	8.95163558	3.80043921	12.02609295	4.32117789	1.07077226	11.75864238
4155	41.54000000	8.76357051	1.02550299	5.58011890	9.14065823	-1.42231867	5.79797157	5.15874671	8.58663756	-1.04454306	10.48881091	0.92430979	1.21956814	8.71430503	3.64081793	2.28590666	9.22315926	3.20518993	-2.25997059	34.23361993	-2.55530824	27.84340589	4.72661513	0.60614725	11.62901214
4156	41.55000000	8.91986924	1.14316929	5.91591766	9.86482775	-1.95793342	5.63020628	4.05792803	10.00064687	-1.29103055	10.23753178	-0.31108184	1.71716746	8.71946076	4.23489396	2.18015676	8.49655612	3.46360977	-2.12147725	19.63195353	-12.12708545	19.83276198	4.73074053	0.36017299	11.43955240
4157	41.56000000	9.26199477	1.36972707	6.06903067	10.41049099	-2.41116644	5.53591965	2.66651848	10.35210011	-2.17875485	10.32564519	-1.49487655	1.72042387	8.91645890	2.92531485	1.56159626	8.49325970	3.32988853	-2.43640699	-2.38664318	-12.93292820	10.34893615	5.18054696	0.75261760	11.45379095
4158	41.57000000	9.63426830	1.52851905	6.10211508	10.32610600	-2.46347827	5.39279485	1.95528300	9.55044585	-0.31196283	10.57847829	-2.22231242	1.59015938	9.63701595	1.17076110	1.27188992	8.86283951	3.70022513	-2.87705823	-5.78572178	-12.50654396	6.46052118	4.46599038	1.08776087	11.62184725
